<svg width="28" height="28" viewBox="0 0 28 28" fill="none" xmlns="http://www.w3.org/2000/svg">
<rect width="28" height="28" rx="14" fill="#E7E9EC"/>
<path d="M11.75 8.53488C11.255 8.53488 10.8313 8.36182 10.4788 8.0157C10.1263 7.66957 9.95 7.25349 9.95 6.76744C9.95 6.2814 10.1263 5.86531 10.4788 5.51919C10.8313 5.17306 11.255 5 11.75 5C12.245 5 12.6688 5.17306 13.0213 5.51919C13.3738 5.86531 13.55 6.2814 13.55 6.76744C13.55 7.25349 13.3738 7.66957 13.0213 8.0157C12.6688 8.36182 12.245 8.53488 11.75 8.53488ZM9.365 16.9302L7.9475 23.293C7.9025 23.4992 7.79375 23.6686 7.62125 23.8012C7.44875 23.9337 7.25 24 7.025 24C6.725 24 6.485 23.8895 6.305 23.6686C6.125 23.4477 6.065 23.1973 6.125 22.9174L8.375 11.5395L6.8 12.2023V14.2791C6.8 14.5295 6.71375 14.7393 6.54125 14.9087C6.36875 15.0781 6.155 15.1628 5.9 15.1628C5.645 15.1628 5.43125 15.0781 5.25875 14.9087C5.08625 14.7393 5 14.5295 5 14.2791V11.6058C5 11.4291 5.0525 11.2671 5.1575 11.1198C5.2625 10.9725 5.3975 10.862 5.5625 10.7884L9.725 9.1093C10.13 8.94729 10.5425 8.92888 10.9625 9.05407C11.3825 9.17926 11.705 9.43333 11.93 9.81628L12.785 11.2302C13.115 11.7457 13.5388 12.1913 14.0563 12.5669C14.5738 12.9424 15.155 13.1891 15.8 13.307C16.055 13.3659 16.2688 13.48 16.4413 13.6494C16.6138 13.8188 16.7 14.0287 16.7 14.2791C16.7 14.5295 16.6138 14.7357 16.4413 14.8977C16.2688 15.0597 16.055 15.126 15.8 15.0965C14.99 14.9787 14.2438 14.7283 13.5613 14.3453C12.8788 13.9624 12.29 13.469 11.795 12.8651L11.255 15.5163L12.5825 16.8198C12.7475 16.9818 12.875 17.1696 12.965 17.3831C13.055 17.5967 13.1 17.8213 13.1 18.057V23.1163C13.1 23.3667 13.0138 23.5766 12.8413 23.7459C12.6688 23.9153 12.455 24 12.2 24C11.945 24 11.7313 23.9153 11.5588 23.7459C11.3863 23.5766 11.3 23.3667 11.3 23.1163V18.6977L9.365 16.9302ZM18.275 11.6279H15.8C15.545 11.6279 15.3313 11.5432 15.1588 11.3738C14.9863 11.2045 14.9 10.9946 14.9 10.7442V6.32558C14.9 6.07519 14.9863 5.86531 15.1588 5.69593C15.3313 5.52655 15.545 5.44186 15.8 5.44186H22.1C22.355 5.44186 22.5688 5.52655 22.7413 5.69593C22.9138 5.86531 23 6.07519 23 6.32558V10.7442C23 10.9946 22.9138 11.2045 22.7413 11.3738C22.5688 11.5432 22.355 11.6279 22.1 11.6279H19.625V23.3372C19.625 23.5287 19.5613 23.687 19.4338 23.8122C19.3063 23.9374 19.145 24 18.95 24C18.755 24 18.5938 23.9374 18.4663 23.8122C18.3388 23.687 18.275 23.5287 18.275 23.3372V11.6279ZM19.04 9.19767L18.9275 9.30814C18.7925 9.4407 18.725 9.59535 18.725 9.77209C18.725 9.94884 18.7925 10.1035 18.9275 10.236C19.0625 10.3686 19.2238 10.4349 19.4113 10.4349C19.5988 10.4349 19.76 10.3686 19.895 10.236L21.02 9.15349C21.11 9.06512 21.1738 8.96938 21.2113 8.86628C21.2488 8.76318 21.2675 8.65271 21.2675 8.53488C21.2675 8.41705 21.2488 8.30659 21.2113 8.20349C21.1738 8.10039 21.11 8.00465 21.02 7.91628L19.895 6.81163C19.76 6.67907 19.6025 6.61279 19.4225 6.61279C19.2425 6.61279 19.085 6.67907 18.95 6.81163C18.815 6.94419 18.7475 7.10252 18.7475 7.28663C18.7475 7.47074 18.815 7.62907 18.95 7.76163L19.04 7.87209H16.925C16.73 7.87209 16.5688 7.93469 16.4413 8.05988C16.3138 8.18508 16.25 8.34341 16.25 8.53488C16.25 8.72636 16.3138 8.88469 16.4413 9.00988C16.5688 9.13508 16.73 9.19767 16.925 9.19767H19.04Z" fill="#152649"/>
</svg>
